<?xml version="1.0" standalone="no"?>
<!DOCTYPE svg PUBLIC "-//W3C//DTD SVG 20010904//EN"
 "http://www.w3.org/TR/2001/REC-SVG-20010904/DTD/svg10.dtd">
<svg version="1.0" xmlns="http://www.w3.org/2000/svg"
 width="700.000000pt" height="700.000000pt" viewBox="0 0 700.000000 700.000000"
 preserveAspectRatio="xMidYMid meet">
<metadata>
Created by potrace 1.14, written by Peter Selinger 2001-2017
</metadata>
<g transform="translate(0.000000,700.000000) scale(0.100000,-0.100000)"
fill="#000000" stroke="none">
<path d="M231 6984 c-93 -33 -152 -85 -198 -174 l-28 -55 0 -3255 0 -3255 29
-58 c35 -68 98 -130 164 -160 l47 -22 3242 -3 3242 -2 58 22 c79 29 162 112
191 191 l22 58 0 3229 0 3229 -21 55 c-26 72 -93 144 -166 181 l-58 30 -3240
2 c-2905 2 -3245 1 -3284 -13z m6479 -2362 l0 -108 -262 -369 c-144 -204 -282
-399 -307 -435 -53 -76 -74 -106 -191 -270 -47 -66 -111 -157 -144 -202 -32
-46 -119 -168 -193 -273 -74 -104 -138 -196 -142 -203 -5 -10 -65 -12 -265
-10 l-258 3 74 103 c80 113 149 210 424 597 102 143 196 276 210 295 38 53
172 242 192 270 9 14 56 80 104 147 49 67 88 125 88 130 0 4 -267 8 -592 8
l-593 0 -3 213 -2 212 930 0 930 0 0 -108z m-5101 49 c411 -65 700 -405 702
-826 1 -122 -3 -155 -33 -265 -62 -230 -226 -422 -445 -522 -152 -69 -173 -71
-653 -77 l-435 -6 0 -353 0 -352 -227 0 -228 0 0 1205 0 1205 423 2 c631 4
814 2 896 -11z m2881 -101 l0 -111 -38 -52 c-50 -67 -66 -90 -680 -959 -287
-406 -522 -740 -522 -743 0 -3 279 -5 620 -5 l620 0 0 -215 0 -215 -940 0
-940 0 0 133 0 132 168 236 c92 130 246 347 342 483 96 136 213 301 260 366
47 65 167 234 267 374 l181 256 -592 0 c-326 0 -595 2 -597 4 -2 2 -3 99 -1
215 l3 211 924 0 925 0 0 -110z m330 -1045 l0 -530 -135 -3 -135 -3 0 536 0
536 135 -3 135 -3 0 -530z"/>
<path d="M747 4243 c-7 -7 -10 -837 -3 -844 2 -2 188 -2 413 1 l408 5 60 29
c87 43 155 112 196 199 33 69 34 76 34 192 0 115 -1 123 -33 188 -56 114 -161
198 -283 226 -49 12 -781 15 -792 4z"/>
</g>
</svg>
