<?xml version="1.0" encoding="utf-8"?>
<!-- Generator: Adobe Illustrator 27.5.0, SVG Export Plug-In . SVG Version: 6.00 Build 0)  -->
<svg version="1.1" id="Layer_1" xmlns="http://www.w3.org/2000/svg" xmlns:xlink="http://www.w3.org/1999/xlink" x="0px" y="0px"
	 viewBox="0 0 103.9 24" style="enable-background:new 0 0 103.9 24;" xml:space="preserve">
<style type="text/css">
	.st0{fill:#E6E7E8;}
</style>
<g>
	<path class="st0" d="M11.3,17.1H4.7v6.9H0.3V0.6c3.7,0,7.3,0,11,0C22.7,0.5,22.7,17.1,11.3,17.1z M4.7,13h6.6c5.6,0,5.6-8.3,0-8.3
		H4.7V13z"/>
	<path class="st0" d="M25.4,0.6v19.3h12v4.1H21V0.6H25.4z"/>
	<path class="st0" d="M38.6,23.9V0.6H43v23.4H38.6z"/>
	<path class="st0" d="M51.6,4.6h-7.4v-4c6.7,0,12.4,0,19.2,0v4H56v19.4h-4.4V4.6z"/>
	<path class="st0" d="M64.2,0.6h18v2.1L70.1,19.8h12.1v4.2H63.9v-2.5L75.8,4.7H64.2V0.6z"/>
	<path class="st0" d="M85.7,0.1h18v2.1L91.5,19.3l-5,0l10.7-15H85.7V0.1z"/>
	<rect x="82.7" y="6.6" class="st0" width="2.6" height="10.3"/>
</g>
</svg>
